<mxfile host="65bd71144e">
    <diagram id="ts7t6q3u_cvq76lZ-yU0" name="Seite-1">
        <mxGraphModel dx="1477" dy="1169" grid="1" gridSize="10" guides="1" tooltips="1" connect="1" arrows="1" fold="1" page="1" pageScale="1" pageWidth="827" pageHeight="1169" math="0" shadow="0">
            <root>
                <mxCell id="0"/>
                <mxCell id="1" parent="0"/>
                <mxCell id="7" value="" style="rounded=0;whiteSpace=wrap;html=1;" vertex="1" parent="1">
                    <mxGeometry x="30" y="300" width="950" height="630" as="geometry"/>
                </mxCell>
                <mxCell id="27" style="edgeStyle=none;html=1;entryX=0.5;entryY=0;entryDx=0;entryDy=0;" edge="1" parent="1" source="3uSWhU95igFiWWhQqcm4-2" target="26">
                    <mxGeometry relative="1" as="geometry"/>
                </mxCell>
                <mxCell id="28" style="edgeStyle=none;html=1;entryX=0.5;entryY=0;entryDx=0;entryDy=0;jumpStyle=sharp;" edge="1" parent="1" target="25">
                    <mxGeometry relative="1" as="geometry">
                        <mxPoint x="870" y="170" as="sourcePoint"/>
                        <Array as="points">
                            <mxPoint x="505" y="170"/>
                        </Array>
                    </mxGeometry>
                </mxCell>
                <mxCell id="3uSWhU95igFiWWhQqcm4-2" value="Client" style="shape=umlActor;verticalLabelPosition=bottom;verticalAlign=top;html=1;outlineConnect=0;" parent="1" vertex="1">
                    <mxGeometry x="850" y="110" width="30" height="60" as="geometry"/>
                </mxCell>
                <mxCell id="8" value="" style="rounded=1;whiteSpace=wrap;html=1;" vertex="1" parent="1">
                    <mxGeometry x="80" y="580" width="150" height="210" as="geometry"/>
                </mxCell>
                <mxCell id="9" value="" style="rounded=1;whiteSpace=wrap;html=1;" vertex="1" parent="1">
                    <mxGeometry x="253.5" y="580" width="150" height="210" as="geometry"/>
                </mxCell>
                <mxCell id="10" value="" style="rounded=1;whiteSpace=wrap;html=1;" vertex="1" parent="1">
                    <mxGeometry x="430" y="580" width="150" height="210" as="geometry"/>
                </mxCell>
                <mxCell id="11" value="" style="rounded=1;whiteSpace=wrap;html=1;" vertex="1" parent="1">
                    <mxGeometry x="790" y="580" width="150" height="210" as="geometry"/>
                </mxCell>
                <mxCell id="12" value="" style="rounded=1;whiteSpace=wrap;html=1;" vertex="1" parent="1">
                    <mxGeometry x="610" y="580" width="150" height="210" as="geometry"/>
                </mxCell>
                <mxCell id="3uSWhU95igFiWWhQqcm4-7" value="&lt;b&gt;Order-Service&lt;br&gt;&lt;/b&gt;Spring Boot" style="rounded=0;whiteSpace=wrap;html=1;fillColor=#60a917;strokeColor=#2D7600;fontColor=#ffffff;" parent="1" vertex="1">
                    <mxGeometry x="100" y="637.5" width="110" height="95" as="geometry"/>
                </mxCell>
                <mxCell id="3uSWhU95igFiWWhQqcm4-9" value="&lt;b&gt;Product-Service&lt;br&gt;&lt;/b&gt;Jakarta EE" style="rounded=0;whiteSpace=wrap;html=1;fillColor=#ffe6cc;strokeColor=#d79b00;" parent="1" vertex="1">
                    <mxGeometry x="273.5" y="637.5" width="110" height="95" as="geometry"/>
                </mxCell>
                <mxCell id="56" style="edgeStyle=none;jumpStyle=sharp;html=1;exitX=0.5;exitY=1;exitDx=0;exitDy=0;entryX=0.5;entryY=0;entryDx=0;entryDy=0;" edge="1" parent="1" source="3uSWhU95igFiWWhQqcm4-11" target="20">
                    <mxGeometry relative="1" as="geometry">
                        <Array as="points">
                            <mxPoint x="505" y="850"/>
                            <mxPoint x="590" y="850"/>
                            <mxPoint x="590" y="450"/>
                            <mxPoint x="685" y="450"/>
                        </Array>
                    </mxGeometry>
                </mxCell>
                <mxCell id="3uSWhU95igFiWWhQqcm4-11" value="&lt;b&gt;Customer-Service&lt;br&gt;&lt;/b&gt;Micronaut" style="rounded=0;whiteSpace=wrap;html=1;fillColor=#dae8fc;strokeColor=#6c8ebf;" parent="1" vertex="1">
                    <mxGeometry x="450" y="637.5" width="110" height="95" as="geometry"/>
                </mxCell>
                <mxCell id="16" style="edgeStyle=none;html=1;exitX=0.5;exitY=1;exitDx=0;exitDy=0;exitPerimeter=0;" edge="1" parent="1" source="3uSWhU95igFiWWhQqcm4-6" target="15">
                    <mxGeometry relative="1" as="geometry"/>
                </mxCell>
                <mxCell id="3uSWhU95igFiWWhQqcm4-1" value="&lt;b&gt;Frontend&lt;/b&gt;&lt;br&gt;VueJS&lt;br&gt;Nginx" style="rounded=0;whiteSpace=wrap;html=1;fillColor=#d5e8d4;strokeColor=#82b366;" parent="1" vertex="1">
                    <mxGeometry x="810" y="637.5" width="110" height="95" as="geometry"/>
                </mxCell>
                <mxCell id="3uSWhU95igFiWWhQqcm4-6" value="&lt;b&gt;Database&lt;/b&gt;&lt;br&gt;PostgreSQL" style="shape=cylinder3;whiteSpace=wrap;html=1;boundedLbl=1;backgroundOutline=1;size=15;fillColor=#e1d5e7;strokeColor=#9673a6;" parent="1" vertex="1">
                    <mxGeometry x="636.25" y="640" width="97.5" height="90" as="geometry"/>
                </mxCell>
                <mxCell id="15" value="Volume" style="rounded=1;whiteSpace=wrap;html=1;" vertex="1" parent="1">
                    <mxGeometry x="625" y="850" width="120" height="60" as="geometry"/>
                </mxCell>
                <mxCell id="47" value="" style="edgeStyle=none;jumpStyle=sharp;html=1;" edge="1" parent="1" source="17" target="3uSWhU95igFiWWhQqcm4-7">
                    <mxGeometry relative="1" as="geometry"/>
                </mxCell>
                <mxCell id="17" value="Service" style="rounded=1;whiteSpace=wrap;html=1;" vertex="1" parent="1">
                    <mxGeometry x="95" y="490" width="120" height="60" as="geometry"/>
                </mxCell>
                <mxCell id="48" value="" style="edgeStyle=none;jumpStyle=sharp;html=1;" edge="1" parent="1" source="18" target="3uSWhU95igFiWWhQqcm4-9">
                    <mxGeometry relative="1" as="geometry"/>
                </mxCell>
                <mxCell id="18" value="Service" style="rounded=1;whiteSpace=wrap;html=1;" vertex="1" parent="1">
                    <mxGeometry x="268.5" y="490" width="120" height="60" as="geometry"/>
                </mxCell>
                <mxCell id="49" value="" style="edgeStyle=none;jumpStyle=sharp;html=1;" edge="1" parent="1" source="19" target="3uSWhU95igFiWWhQqcm4-11">
                    <mxGeometry relative="1" as="geometry"/>
                </mxCell>
                <mxCell id="19" value="Service" style="rounded=1;whiteSpace=wrap;html=1;" vertex="1" parent="1">
                    <mxGeometry x="445" y="490" width="120" height="60" as="geometry"/>
                </mxCell>
                <mxCell id="50" value="" style="edgeStyle=none;jumpStyle=sharp;html=1;" edge="1" parent="1" source="20" target="3uSWhU95igFiWWhQqcm4-6">
                    <mxGeometry relative="1" as="geometry"/>
                </mxCell>
                <mxCell id="20" value="Service" style="rounded=1;whiteSpace=wrap;html=1;" vertex="1" parent="1">
                    <mxGeometry x="625" y="490" width="120" height="60" as="geometry"/>
                </mxCell>
                <mxCell id="51" value="" style="edgeStyle=none;jumpStyle=sharp;html=1;" edge="1" parent="1" source="21" target="3uSWhU95igFiWWhQqcm4-1">
                    <mxGeometry relative="1" as="geometry"/>
                </mxCell>
                <mxCell id="21" value="Service" style="rounded=1;whiteSpace=wrap;html=1;" vertex="1" parent="1">
                    <mxGeometry x="805" y="490" width="120" height="60" as="geometry"/>
                </mxCell>
                <mxCell id="41" value="" style="edgeStyle=none;jumpStyle=sharp;html=1;" edge="1" parent="1" source="22" target="17">
                    <mxGeometry relative="1" as="geometry"/>
                </mxCell>
                <mxCell id="22" value="Ingress" style="rounded=1;whiteSpace=wrap;html=1;" vertex="1" parent="1">
                    <mxGeometry x="95" y="390" width="120" height="60" as="geometry"/>
                </mxCell>
                <mxCell id="40" value="" style="edgeStyle=none;jumpStyle=sharp;html=1;" edge="1" parent="1" source="24" target="18">
                    <mxGeometry relative="1" as="geometry"/>
                </mxCell>
                <mxCell id="24" value="Ingress" style="rounded=1;whiteSpace=wrap;html=1;" vertex="1" parent="1">
                    <mxGeometry x="268.5" y="390" width="120" height="60" as="geometry"/>
                </mxCell>
                <mxCell id="39" value="" style="edgeStyle=none;jumpStyle=sharp;html=1;" edge="1" parent="1" source="25" target="19">
                    <mxGeometry relative="1" as="geometry"/>
                </mxCell>
                <mxCell id="25" value="Ingress" style="rounded=1;whiteSpace=wrap;html=1;" vertex="1" parent="1">
                    <mxGeometry x="445" y="390" width="120" height="60" as="geometry"/>
                </mxCell>
                <mxCell id="38" value="" style="edgeStyle=none;jumpStyle=sharp;html=1;" edge="1" parent="1" source="26" target="21">
                    <mxGeometry relative="1" as="geometry"/>
                </mxCell>
                <mxCell id="26" value="Ingress" style="rounded=1;whiteSpace=wrap;html=1;" vertex="1" parent="1">
                    <mxGeometry x="805" y="390" width="120" height="60" as="geometry"/>
                </mxCell>
                <mxCell id="29" style="edgeStyle=none;html=1;entryX=0.5;entryY=0;entryDx=0;entryDy=0;jumpStyle=sharp;" edge="1" parent="1" target="24">
                    <mxGeometry relative="1" as="geometry">
                        <mxPoint x="860" y="170" as="sourcePoint"/>
                        <mxPoint x="515" y="400" as="targetPoint"/>
                        <Array as="points">
                            <mxPoint x="330" y="170"/>
                        </Array>
                    </mxGeometry>
                </mxCell>
                <mxCell id="30" style="edgeStyle=none;html=1;exitX=0;exitY=1;exitDx=0;exitDy=0;exitPerimeter=0;entryX=0.5;entryY=0;entryDx=0;entryDy=0;jumpStyle=sharp;" edge="1" parent="1" source="3uSWhU95igFiWWhQqcm4-2" target="22">
                    <mxGeometry relative="1" as="geometry">
                        <mxPoint x="875" y="150" as="sourcePoint"/>
                        <mxPoint x="338.5" y="400" as="targetPoint"/>
                        <Array as="points">
                            <mxPoint x="155" y="170"/>
                        </Array>
                    </mxGeometry>
                </mxCell>
                <mxCell id="34" value="/api/product" style="text;html=1;strokeColor=none;fillColor=none;align=center;verticalAlign=middle;whiteSpace=wrap;rounded=0;" vertex="1" parent="1">
                    <mxGeometry x="334" y="360" width="80" height="30" as="geometry"/>
                </mxCell>
                <mxCell id="35" value="/" style="text;html=1;strokeColor=none;fillColor=none;align=center;verticalAlign=middle;whiteSpace=wrap;rounded=0;" vertex="1" parent="1">
                    <mxGeometry x="870" y="360" width="20" height="30" as="geometry"/>
                </mxCell>
                <mxCell id="36" value="/api/customer" style="text;html=1;strokeColor=none;fillColor=none;align=center;verticalAlign=middle;whiteSpace=wrap;rounded=0;" vertex="1" parent="1">
                    <mxGeometry x="512" y="360" width="80" height="30" as="geometry"/>
                </mxCell>
                <mxCell id="37" value="/api/order" style="text;html=1;strokeColor=none;fillColor=none;align=center;verticalAlign=middle;whiteSpace=wrap;rounded=0;" vertex="1" parent="1">
                    <mxGeometry x="150" y="360" width="80" height="30" as="geometry"/>
                </mxCell>
                <mxCell id="42" value="80" style="text;html=1;strokeColor=none;fillColor=none;align=center;verticalAlign=middle;whiteSpace=wrap;rounded=0;" vertex="1" parent="1">
                    <mxGeometry x="150" y="460" width="40" height="30" as="geometry"/>
                </mxCell>
                <mxCell id="43" value="80" style="text;html=1;strokeColor=none;fillColor=none;align=center;verticalAlign=middle;whiteSpace=wrap;rounded=0;" vertex="1" parent="1">
                    <mxGeometry x="320" y="460" width="40" height="30" as="geometry"/>
                </mxCell>
                <mxCell id="44" value="80" style="text;html=1;strokeColor=none;fillColor=none;align=center;verticalAlign=middle;whiteSpace=wrap;rounded=0;" vertex="1" parent="1">
                    <mxGeometry x="500" y="460" width="40" height="30" as="geometry"/>
                </mxCell>
                <mxCell id="45" value="80" style="text;html=1;strokeColor=none;fillColor=none;align=center;verticalAlign=middle;whiteSpace=wrap;rounded=0;" vertex="1" parent="1">
                    <mxGeometry x="860" y="460" width="40" height="30" as="geometry"/>
                </mxCell>
                <mxCell id="46" value="8080" style="text;html=1;strokeColor=none;fillColor=none;align=center;verticalAlign=middle;whiteSpace=wrap;rounded=0;" vertex="1" parent="1">
                    <mxGeometry x="157" y="607.5" width="40" height="30" as="geometry"/>
                </mxCell>
                <mxCell id="52" value="8080" style="text;html=1;strokeColor=none;fillColor=none;align=center;verticalAlign=middle;whiteSpace=wrap;rounded=0;" vertex="1" parent="1">
                    <mxGeometry x="330" y="608" width="40" height="30" as="geometry"/>
                </mxCell>
                <mxCell id="53" value="8080" style="text;html=1;strokeColor=none;fillColor=none;align=center;verticalAlign=middle;whiteSpace=wrap;rounded=0;" vertex="1" parent="1">
                    <mxGeometry x="510" y="607.5" width="40" height="30" as="geometry"/>
                </mxCell>
                <mxCell id="54" value="5432&lt;span style=&quot;color: rgba(0, 0, 0, 0); font-family: monospace; font-size: 0px; text-align: start;&quot;&gt;%3CmxGraphModel%3E%3Croot%3E%3CmxCell%20id%3D%220%22%2F%3E%3CmxCell%20id%3D%221%22%20parent%3D%220%22%2F%3E%3CmxCell%20id%3D%222%22%20value%3D%228080%22%20style%3D%22text%3Bhtml%3D1%3BstrokeColor%3Dnone%3BfillColor%3Dnone%3Balign%3Dcenter%3BverticalAlign%3Dmiddle%3BwhiteSpace%3Dwrap%3Brounded%3D0%3B%22%20vertex%3D%221%22%20parent%3D%221%22%3E%3CmxGeometry%20x%3D%22160%22%20y%3D%22607.5%22%20width%3D%2240%22%20height%3D%2230%22%20as%3D%22geometry%22%2F%3E%3C%2FmxCell%3E%3C%2Froot%3E%3C%2FmxGraphModel%3E&lt;/span&gt;" style="text;html=1;strokeColor=none;fillColor=none;align=center;verticalAlign=middle;whiteSpace=wrap;rounded=0;" vertex="1" parent="1">
                    <mxGeometry x="690" y="610" width="40" height="30" as="geometry"/>
                </mxCell>
                <mxCell id="55" value="80" style="text;html=1;strokeColor=none;fillColor=none;align=center;verticalAlign=middle;whiteSpace=wrap;rounded=0;" vertex="1" parent="1">
                    <mxGeometry x="860" y="608" width="40" height="30" as="geometry"/>
                </mxCell>
                <mxCell id="57" style="edgeStyle=none;jumpStyle=sharp;html=1;exitX=0.5;exitY=1;exitDx=0;exitDy=0;entryX=0.75;entryY=0;entryDx=0;entryDy=0;" edge="1" parent="1" source="3uSWhU95igFiWWhQqcm4-9" target="20">
                    <mxGeometry relative="1" as="geometry">
                        <mxPoint x="515" y="742.5" as="sourcePoint"/>
                        <mxPoint x="695" y="500" as="targetPoint"/>
                        <Array as="points">
                            <mxPoint x="329" y="860"/>
                            <mxPoint x="600" y="860"/>
                            <mxPoint x="600" y="460"/>
                            <mxPoint x="715" y="460"/>
                        </Array>
                    </mxGeometry>
                </mxCell>
                <mxCell id="59" style="edgeStyle=none;jumpStyle=sharp;html=1;exitX=0.5;exitY=1;exitDx=0;exitDy=0;entryX=0.25;entryY=0;entryDx=0;entryDy=0;" edge="1" parent="1" source="3uSWhU95igFiWWhQqcm4-7" target="20">
                    <mxGeometry relative="1" as="geometry">
                        <mxPoint x="338.5" y="742.5" as="sourcePoint"/>
                        <mxPoint x="725" y="500" as="targetPoint"/>
                        <Array as="points">
                            <mxPoint x="155" y="870"/>
                            <mxPoint x="610" y="870"/>
                            <mxPoint x="610" y="470"/>
                            <mxPoint x="655" y="470"/>
                        </Array>
                    </mxGeometry>
                </mxCell>
            </root>
        </mxGraphModel>
    </diagram>
</mxfile>